<?xml version="1.0" standalone="no"?><!DOCTYPE svg PUBLIC "-//W3C//DTD SVG 1.1//EN" "http://www.w3.org/Graphics/SVG/1.1/DTD/svg11.dtd"><svg t="1513582952357" class="icon" style="" viewBox="0 0 1024 1024" version="1.1" xmlns="http://www.w3.org/2000/svg" p-id="4181" xmlns:xlink="http://www.w3.org/1999/xlink" width="32" height="32"><defs><style type="text/css"></style></defs><path d="M257.606784 726.304729h510.206655v-44.833626H257.606784z m168.574431-386.46585H256.261775v44.833625h170.367776v-44.833625zM937.732878 399.019264V358.669002l-355.978984-358.669002H175.56125a89.66725 89.66725 0 0 0-89.667251 89.66725v844.6655a89.66725 89.66725 0 0 0 89.667251 89.66725h672.504378a89.66725 89.66725 0 0 0 89.66725-89.66725z m-340.287215-306.661996l257.793345 249.723292H641.830952a44.833625 44.833625 0 0 1-44.833625-44.833625z m299.04028 843.768827a44.833625 44.833625 0 0 1-44.833625 44.833625H175.56125a44.833625 44.833625 0 0 1-44.833626-44.833625V89.66725a44.833625 44.833625 0 0 1 44.833626-44.833625h374.809106l6.276708 6.276708v246.584938a89.66725 89.66725 0 0 0 89.66725 89.667251h252.861647zM256.261775 555.936953h511.551664v-44.833626H256.261775z m0 0" p-id="4182"></path></svg>