<?xml version="1.0" standalone="no"?><!DOCTYPE svg PUBLIC "-//W3C//DTD SVG 1.1//EN" "http://www.w3.org/Graphics/SVG/1.1/DTD/svg11.dtd"><svg t="1513664886010" class="icon" style="" viewBox="0 0 1024 1024" version="1.1" xmlns="http://www.w3.org/2000/svg" p-id="4336" xmlns:xlink="http://www.w3.org/1999/xlink" width="32" height="32"><defs><style type="text/css"></style></defs><path d="M680.597087 1.430825c-84.842543-2.666663-105.130513 59.327913-166.122424 59.327913-62.485242 0-93.759863-48.746596-170.645084-59.327913-76.885221-10.645318-89.791869 40.191941-89.791869 89.813202-0.021333 0 58.239915 165.717092 134.69847 165.717092H635.733153c76.415889 0 134.69847-165.717092 134.69847-165.717092 0-49.621261-4.949326-87.189206-89.834536-89.813202z m-51.029258 242.26098h-234.666325c-72.639894 0-124.821151-153.002444-124.821151-153.002444-2.346663-45.951933 1.535998-85.930541 81.663881-74.666558 66.005237 12.671982 95.338528 56.213251 157.994436 56.661251 64.895905 0.469333 96.981192-61.717243 161.983764-59.327913 77.674553 2.666663 86.335874 33.109285 82.325213 79.33855 0.021333 0-51.861258 150.997113-124.479818 150.997114zM642.474476 308.225044H382.058856c-288.426246 0-359.252809 566.612507-359.252809 566.612507C22.806047 949.248109 83.115292 1024 157.504517 1024H866.986149c74.410558 0 134.69847-74.751891 134.69847-149.162449 0 0-70.826563-566.612507-359.210143-566.612507z m210.453027 701.566977H171.60583c-71.445229 0-129.365145-71.765229-129.365145-143.231791 0 0 68.010567-544.127206 344.98083-544.127207h250.090302c276.906263 0 344.959497 544.127206 344.959497 544.127207 0 71.466562-57.919916 143.231791-129.343811 143.231791z" fill="#16AFEE" p-id="4337"></path><path d="M528.789309 915.840158c0 7.466656-7.189323 13.50398-15.999977 13.50398s-15.999977-6.037325-15.999976-13.50398V667.26452c0-7.423989 7.189323-13.482647 15.999976-13.482647 8.831987 0 15.999977 6.058658 15.999977 13.482647V915.840158z" fill="#16AFEE" p-id="4338"></path><path d="M676.949093 778.901691c9.727986 0 17.663974 7.16799 17.663974 15.999976s-7.935988 15.999977-17.663974 15.999977H350.933568c-9.749319 0-17.663974-7.16799-17.663974-15.999977s7.935988-15.999977 17.663974-15.999976h326.015525zM673.557098 663.147193c9.727986 0 17.685308 7.16799 17.685307 15.999977s-7.957322 15.999977-17.685307 15.999976H347.562906c-9.727986 0-17.685308-7.16799-17.685307-15.999976s7.957322-15.999977 17.685307-15.999977h325.994192z" fill="#16AFEE" p-id="4339"></path><path d="M514.282663 650.987211c3.946661 6.186658 1.322665 14.911978-5.845324 19.541304-7.210656 4.607993-16.255976 3.306662-20.202638-2.837329l-131.882474-205.8237c-3.946661-6.143991-1.279998-14.890645 5.866658-19.498638 7.210656-4.629327 16.255976-3.327995 20.181304 2.794663l131.882474 205.8237z" fill="#16AFEE" p-id="4340"></path><path d="M537.535963 668.885851c-4.053327 6.122658-13.119981 7.274656-20.245304 2.58133-7.125323-4.735993-9.621319-13.546647-5.589325-19.647972l134.805137-203.903702c4.010661-6.101324 13.098648-7.189323 20.202637-2.538663 7.146656 4.735993 9.621319 13.50398 5.631992 19.583971l-134.805137 203.925036z" fill="#16AFEE" p-id="4341"></path></svg>