<?xml version="1.0" standalone="no"?><!DOCTYPE svg PUBLIC "-//W3C//DTD SVG 1.1//EN" "http://www.w3.org/Graphics/SVG/1.1/DTD/svg11.dtd"><svg t="1513664841083" class="icon" style="" viewBox="0 0 1024 1024" version="1.1" xmlns="http://www.w3.org/2000/svg" p-id="3110" xmlns:xlink="http://www.w3.org/1999/xlink" width="32" height="32"><defs><style type="text/css"></style></defs><path d="M406.189312 1024c-12.629018 0-25.940685-0.341325-39.935002-0.68265-27.988634-0.68265-60.073165-3.071923-94.888294-6.826496-78.504704-7.509146-135.84727-17.407565-175.099623-29.695257-44.372224-13.994317-66.558336-21.162138-65.193037-45.737523 0.68265-10.581069 8.191795-22.868762 23.210087-25.940685h0.68265c35.839104-6.143846 66.558336-15.700941 91.816371-29.012608 5.119872-2.730598 4.778547-3.754573 4.437222-6.485171-1.706624-9.898419-6.485171-19.455514-15.018291-29.012609C97.290368 807.600077 65.205837 757.084006 40.971776 699.74144 16.737715 642.398873 3.426048 579.59511 2.060748 513.378099c-0.68265-70.312909 12.287693-137.21257 38.569703-198.992359 26.28201-61.438464 62.462438-116.050432 107.858637-162.12928C193.543961 105.836287 247.814605 68.631884 309.253069 42.00855 371.032858 15.043891 437.591194 1.049574 507.562778 0.025599l0.341324 26.96466V0.025599c70.312909-0.68265 136.871245 12.287693 198.651034 38.569703 61.438464 25.940685 116.050432 62.121114 162.470605 107.175987 46.761498 45.054874 83.965901 98.984192 110.93056 160.081331 26.964659 61.438464 40.958976 127.9968 41.982951 197.968384 0.68265 66.217011-10.922394 129.703424-34.473805 188.41129-23.551411 58.366541-56.659917 110.93056-98.642868 156.326759-41.98295 45.054874-91.816371 82.600602-148.134963 111.613209-56.318592 29.353933-118.098381 47.444147-183.291418 54.611968-16.38359 2.389274-34.13248 4.095898-52.905344 5.461197-18.431539 1.365299-39.593677 2.730598-62.121113 3.413248-11.263718 0-23.551411 0.341325-36.180429 0.341325z m-258.724199-79.187354c33.108506 7.167821 76.456755 13.311667 129.020775 18.43154 33.791155 3.754573 64.510387 5.802522 91.133722 6.485171 26.964659 0.68265 51.540045 0.68265 73.043507 0 21.844787-0.68265 41.98295-1.706624 59.73184-3.071923 17.74889-1.365299 34.81513-3.071923 50.174745-5.461197h0.68265c58.707866-6.143846 114.002483-22.527437 164.859879-48.809447 50.857395-26.28201 95.912269-60.073165 133.457996-100.690816 37.545728-40.276326 67.240986-87.037824 88.061799-139.601843 20.820813-52.222694 31.060557-108.541286 30.377907-167.931802-0.68265-62.803763-13.311667-122.194278-37.204403-176.806246-24.234061-54.953293-57.342566-103.08009-98.984192-143.356416S740.687616 111.297484 685.392999 87.746073c-54.953293-23.210086-114.685133-34.81513-177.147572-34.13248-62.803763 0.68265-122.535603 13.311667-177.488896 37.204403-55.294618 24.234061-103.762739 57.342566-144.38039 98.642867-40.617651 41.641626-73.043507 90.792397-96.594919 145.74569-23.210086 54.953293-34.81513 114.685133-34.13248 177.147571 1.365299 59.04919 12.970342 115.026458 34.81513 166.225178 21.844787 51.540045 50.51607 97.277568 85.672525 135.847271 15.359616 17.06624 24.575386 35.839104 27.988633 55.977267 4.437222 26.28201-7.167821 49.150771-31.743206 62.803763 0 0-0.341325 0-0.341325 0.341325-7.85047 4.095898-16.042266 7.85047-24.575386 11.263718z" p-id="3111" fill="#0e932e"></path><path d="M311.983667 512.0128m-52.564019 0a52.564019 52.564019 0 1 0 105.128038 0 52.564019 52.564019 0 1 0-105.128038 0Z" p-id="3112" fill="#0e932e"></path><path d="M512 512.0128m-52.564019 0a52.564019 52.564019 0 1 0 105.128038 0 52.564019 52.564019 0 1 0-105.128038 0Z" p-id="3113" fill="#0e932e"></path><path d="M712.016333 512.0128m-52.564019 0a52.564019 52.564019 0 1 0 105.128038 0 52.564019 52.564019 0 1 0-105.128038 0Z" p-id="3114" fill="#0e932e"></path></svg>