<?xml version="1.0" standalone="no"?><!DOCTYPE svg PUBLIC "-//W3C//DTD SVG 1.1//EN" "http://www.w3.org/Graphics/SVG/1.1/DTD/svg11.dtd"><svg t="1513583823188" class="icon" style="" viewBox="0 0 1024 1024" version="1.1" xmlns="http://www.w3.org/2000/svg" p-id="8582" xmlns:xlink="http://www.w3.org/1999/xlink" width="32" height="32"><defs><style type="text/css"></style></defs><path d="M840.304 183.872C752.624 96.256 636.096 48 512.096 48c-123.984 0-240.528 48.256-328.16 135.872C96.304 271.504 48 388.032 48 512c-0.016 123.968 48.224 240.48 135.872 328.16C271.52 927.744 388.064 976 512.016 976c124 0 240.592-48.288 328.288-135.92 180.928-180.896 180.944-475.264 0-656.208z m-42.448 613.392c-76.288 76.256-177.76 118.304-285.664 118.304-107.84 0-209.264-42.016-285.504-118.208-76.24-76.256-118.24-177.664-118.208-285.552 0-107.872 42-209.28 118.272-285.504 76.272-76.24 177.648-118.208 285.536-118.208 107.872 0 209.28 41.968 285.568 118.208 157.408 157.44 157.408 413.584 0 570.96z m-128.944-435.968a54.288 54.288 0 0 0-54.352 54.192 54.288 54.288 0 0 0 54.352 54.16 54.272 54.272 0 0 0 54.4-54.16c0-29.92-24.336-54.192-54.4-54.192z m-289.328 108.352a54.256 54.256 0 0 0 54.4-54.16 54.256 54.256 0 0 0-54.4-54.192 54.352 54.352 0 0 0-54.384 54.192 54.336 54.336 0 0 0 54.4 54.16z m132.96 120.656c-75.888 0-142.832 39.776-182.592 100.704-12.24 18.752 1.2 43.968 23.216 43.984h2.16c8.88 0 17.44-4.224 22.448-11.744 29.68-44.512 78.976-73.648 134.768-73.648 56.128 0 105.68 28.704 135.296 73.552 4.992 7.552 13.6 11.808 22.496 11.808h1.36c22.032 0.032 35.456-25.2 23.184-43.952-39.792-60.8-106.608-100.704-182.336-100.704z" p-id="8583"></path></svg>