<?xml version="1.0" standalone="no"?><!DOCTYPE svg PUBLIC "-//W3C//DTD SVG 1.1//EN" "http://www.w3.org/Graphics/SVG/1.1/DTD/svg11.dtd"><svg t="1513582923437" class="icon" style="" viewBox="0 0 1024 1024" version="1.1" xmlns="http://www.w3.org/2000/svg" p-id="3405" xmlns:xlink="http://www.w3.org/1999/xlink" width="32" height="32"><defs><style type="text/css"></style></defs><path d="M511.99647 102.391413C633.177315 102.391413 731.427983 194.073637 731.427983 307.180115L841.139624 307.180115C841.139624 137.53687 693.781266 0 511.99647 0 330.211674 0 182.859202 137.53687 182.859202 307.180115L292.568486 307.180115C292.568487 194.073637 390.820332 102.391413 511.99647 102.391413L511.99647 102.391413ZM877.712128 375.46498 146.286694 375.46498C105.890334 375.46498 73.142857 406.034744 73.142857 443.714548L73.142857 955.713959C73.142857 993.430236 105.890334 1024 146.286694 1024L877.712128 1024 877.718009 1024C918.103786 1024.00353 950.857143 993.430236 950.857143 955.713959L950.857143 443.714546C950.855965 406.034742 918.103786 375.46498 877.712128 375.46498L877.712128 375.46498ZM889.684904 957.302334C889.684904 965.067726 883.33143 971.421229 875.566065 971.421229L151.901287 971.42123C144.135924 971.42123 137.782445 965.067728 137.782445 957.302335L137.782445 452.498853C137.782445 444.73346 144.135924 438.379957 151.901287 438.379957L875.566065 438.379957C883.33143 438.379957 889.684904 444.73346 889.684904 452.498853L889.684904 957.302334 889.684904 957.302334ZM512.002354 546.147138 511.99647 546.141254C451.387811 546.141254 402.284832 591.965308 402.284832 648.533842 402.284832 686.323066 424.50083 719.002428 457.143593 736.71576L457.143593 834.144379C457.143593 863.569335 481.710378 887.464389 512.002354 887.464389 542.28374 887.464389 566.861115 863.569334 566.861115 834.144379L566.861115 736.71576C599.501525 719.002428 621.713992 686.323068 621.713992 648.533842 621.712815 591.971192 572.611013 546.147138 512.002354 546.147138L512.002354 546.147138Z" p-id="3406"></path></svg>